<svg xmlns="http://www.w3.org/2000/svg" viewBox="0 0 800 450" width="800" height="450" role="img" aria-label="Black Beacon">
  <defs>
    <radialGradient id="bbCone" cx="0.5" cy="0" r="1">
      <stop offset="0%" stop-color="#ffe9a8" stop-opacity="0.62"/>
      <stop offset="45%" stop-color="#ffd36e" stop-opacity="0.20"/>
      <stop offset="100%" stop-color="#ffd36e" stop-opacity="0"/>
    </radialGradient>
    <linearGradient id="bbFog" x1="0" y1="0" x2="0" y2="1">
      <stop offset="0%" stop-color="#0a0d12" stop-opacity="0"/>
      <stop offset="100%" stop-color="#05070a" stop-opacity="0.95"/>
    </linearGradient>
    <clipPath id="bbFrame"><rect width="800" height="450"/></clipPath>
  </defs>

  <g clip-path="url(#bbFrame)">
    <rect width="800" height="450" fill="#070a0f"/>

    <!-- cielo con estrellas -->
    <g fill="#c9d6e8">
      <circle cx="96" cy="52" r="1.4" opacity="0.5"/><circle cx="188" cy="94" r="1" opacity="0.32"/>
      <circle cx="292" cy="40" r="1.6" opacity="0.45"/><circle cx="412" cy="76" r="1" opacity="0.28"/>
      <circle cx="540" cy="38" r="1.3" opacity="0.42"/><circle cx="648" cy="88" r="1" opacity="0.3"/>
      <circle cx="726" cy="46" r="1.5" opacity="0.4"/><circle cx="360" cy="122" r="1" opacity="0.22"/>
    </g>

    <!-- cono de linterna -->
    <path d="M400 214 L118 450 L682 450 Z" fill="url(#bbCone)"/>

    <!-- árboles al fondo -->
    <g fill="#0c1119">
      <path d="M60 450V236l24-40 24 40v214z"/>
      <path d="M150 450V262l20-34 20 34v188z"/>
      <path d="M640 450V248l22-38 22 38v202z"/>
      <path d="M726 450V272l18-30 18 30v178z"/>
    </g>
    <g fill="#0e141d">
      <path d="M84 196l-38 62h76zM84 232l-46 74h92z"/>
      <path d="M170 228l-32 52h64zM170 258l-40 64h80z"/>
      <path d="M662 210l-36 58h72zM662 244l-44 70h88z"/>
      <path d="M744 242l-30 48h60zM744 270l-38 60h76z"/>
    </g>

    <!-- casa -->
    <g>
      <path d="M300 450V266h200v184z" fill="#141b26"/>
      <path d="M286 272l114-84 114 84z" fill="#1a2331"/>
      <rect x="378" y="352" width="44" height="98" fill="#070a0f"/>
      <rect x="326" y="300" width="38" height="36" fill="#ffcf6b" opacity="0.5"/>
      <rect x="436" y="300" width="38" height="36" fill="#ffcf6b" opacity="0.22"/>
      <path d="M345 300v36M326 318h38" stroke="#141b26" stroke-width="3"/>
      <path d="M455 300v36M436 318h38" stroke="#141b26" stroke-width="3"/>
    </g>

    <!-- figura -->
    <g fill="#04060a">
      <ellipse cx="552" cy="446" rx="26" ry="8" opacity="0.6"/>
      <path d="M552 336a13 13 0 1 1 0 26 13 13 0 0 1 0-26z"/>
      <path d="M540 366h24v46l6 34h-9l-9-30-9 30h-9l6-34z"/>
      <path d="M538 372l-12 28 5 3 13-24zM566 372l12 28-5 3-13-24z"/>
    </g>

    <!-- niebla inferior -->
    <rect y="240" width="800" height="210" fill="url(#bbFog)"/>

    <!-- líneas de escaneo PS1 -->
    <g fill="#000" opacity="0.16">
      <rect y="0" width="800" height="2"/><rect y="6" width="800" height="2"/>
      <rect y="12" width="800" height="2"/><rect y="18" width="800" height="2"/>
      <rect y="24" width="800" height="2"/><rect y="30" width="800" height="2"/>
      <rect y="36" width="800" height="2"/><rect y="42" width="800" height="2"/>
      <rect y="48" width="800" height="2"/><rect y="54" width="800" height="2"/>
      <rect y="60" width="800" height="2"/><rect y="66" width="800" height="2"/>
      <rect y="72" width="800" height="2"/><rect y="78" width="800" height="2"/>
      <rect y="84" width="800" height="2"/><rect y="90" width="800" height="2"/>
      <rect y="96" width="800" height="2"/><rect y="102" width="800" height="2"/>
      <rect y="108" width="800" height="2"/><rect y="114" width="800" height="2"/>
      <rect y="120" width="800" height="2"/><rect y="126" width="800" height="2"/>
      <rect y="132" width="800" height="2"/><rect y="138" width="800" height="2"/>
      <rect y="144" width="800" height="2"/><rect y="150" width="800" height="2"/>
      <rect y="156" width="800" height="2"/><rect y="162" width="800" height="2"/>
      <rect y="168" width="800" height="2"/><rect y="174" width="800" height="2"/>
      <rect y="180" width="800" height="2"/><rect y="186" width="800" height="2"/>
      <rect y="192" width="800" height="2"/><rect y="198" width="800" height="2"/>
      <rect y="204" width="800" height="2"/><rect y="210" width="800" height="2"/>
      <rect y="216" width="800" height="2"/><rect y="222" width="800" height="2"/>
      <rect y="228" width="800" height="2"/><rect y="234" width="800" height="2"/>
      <rect y="240" width="800" height="2"/><rect y="246" width="800" height="2"/>
      <rect y="252" width="800" height="2"/><rect y="258" width="800" height="2"/>
      <rect y="264" width="800" height="2"/><rect y="270" width="800" height="2"/>
      <rect y="276" width="800" height="2"/><rect y="282" width="800" height="2"/>
      <rect y="288" width="800" height="2"/><rect y="294" width="800" height="2"/>
      <rect y="300" width="800" height="2"/><rect y="306" width="800" height="2"/>
      <rect y="312" width="800" height="2"/><rect y="318" width="800" height="2"/>
      <rect y="324" width="800" height="2"/><rect y="330" width="800" height="2"/>
      <rect y="336" width="800" height="2"/><rect y="342" width="800" height="2"/>
      <rect y="348" width="800" height="2"/><rect y="354" width="800" height="2"/>
      <rect y="360" width="800" height="2"/><rect y="366" width="800" height="2"/>
      <rect y="372" width="800" height="2"/><rect y="378" width="800" height="2"/>
      <rect y="384" width="800" height="2"/><rect y="390" width="800" height="2"/>
      <rect y="396" width="800" height="2"/><rect y="402" width="800" height="2"/>
      <rect y="408" width="800" height="2"/><rect y="414" width="800" height="2"/>
      <rect y="420" width="800" height="2"/><rect y="426" width="800" height="2"/>
      <rect y="432" width="800" height="2"/><rect y="438" width="800" height="2"/>
      <rect y="444" width="800" height="2"/>
    </g>

    <!-- barra de batería -->
    <g transform="translate(48 396)">
      <rect width="120" height="14" rx="3" fill="none" stroke="#ffd36e" stroke-opacity="0.55" stroke-width="2"/>
      <rect x="122" y="4" width="5" height="6" rx="1" fill="#ffd36e" fill-opacity="0.55"/>
      <rect x="4" y="4" width="42" height="6" fill="#ffd36e" fill-opacity="0.8"/>
    </g>
  </g>
</svg>
