<svg xmlns="http://www.w3.org/2000/svg" viewBox="0 0 800 450" width="800" height="450" role="img" aria-label="Panel personal">
  <defs>
    <linearGradient id="ppBg" x1="0" y1="0" x2="1" y2="1">
      <stop offset="0%" stop-color="#241634"/>
      <stop offset="100%" stop-color="#0e0a16"/>
    </linearGradient>
  </defs>
  <rect width="800" height="450" fill="url(#ppBg)"/>
  <circle cx="120" cy="30" r="230" fill="#f472b6" fill-opacity="0.10"/>

  <!-- clima -->
  <g transform="translate(48 56)">
    <rect width="336" height="164" rx="12" fill="#1a1226" stroke="#3b2b52" stroke-width="1.5"/>
    <rect x="20" y="18" width="58" height="9" rx="4.5" fill="#f472b6" fill-opacity="0.75"/>

    <!-- sol tras nube -->
    <g transform="translate(56 82)">
      <circle cx="0" cy="-8" r="20" fill="#fbbf24" fill-opacity="0.9"/>
      <g stroke="#fbbf24" stroke-width="3" stroke-linecap="round" stroke-opacity="0.7">
        <path d="M0 -38v-8M0 22v6M-30 -8h-8M30 -8h8M-22 -30l-6-6M22 -30l6-6"/>
      </g>
      <path d="M-16 14a16 16 0 0 1 31-5 12 12 0 0 1 2 24h-38a13 13 0 0 1 5-19z" fill="#e2e8f0" fill-opacity="0.9"/>
    </g>

    <text x="140" y="78" font-family="system-ui, Segoe UI, Arial" font-size="42" font-weight="700"
          fill="#f8fafc" fill-opacity="0.92">15°</text>
    <rect x="140" y="94" width="104" height="8" rx="4" fill="#cbd5e1" fill-opacity="0.4"/>
    <g fill="#94a3b8" fill-opacity="0.55">
      <rect x="140" y="116" width="40" height="7" rx="3.5"/>
      <rect x="192" y="116" width="40" height="7" rx="3.5"/>
      <rect x="244" y="116" width="40" height="7" rx="3.5"/>
    </g>
    <rect x="140" y="136" width="118" height="7" rx="3.5" fill="#f472b6" fill-opacity="0.45"/>
  </g>

  <!-- relojes -->
  <g transform="translate(408 56)">
    <rect width="344" height="164" rx="12" fill="#1a1226" stroke="#3b2b52" stroke-width="1.5"/>
    <rect x="20" y="18" width="46" height="9" rx="4.5" fill="#f472b6" fill-opacity="0.75"/>
    <g transform="translate(20 48)">
      <g>
        <circle cx="36" cy="36" r="28" fill="none" stroke="#5b4a7a" stroke-width="2"/>
        <path d="M36 36V20M36 36l12 8" stroke="#e2e8f0" stroke-width="2.4" stroke-linecap="round"/>
        <rect x="10" y="76" width="52" height="7" rx="3.5" fill="#94a3b8" fill-opacity="0.5"/>
      </g>
      <g transform="translate(78 0)">
        <circle cx="36" cy="36" r="28" fill="none" stroke="#5b4a7a" stroke-width="2"/>
        <path d="M36 36V22M36 36l-11 7" stroke="#e2e8f0" stroke-width="2.4" stroke-linecap="round"/>
        <rect x="10" y="76" width="52" height="7" rx="3.5" fill="#94a3b8" fill-opacity="0.5"/>
      </g>
      <g transform="translate(156 0)">
        <circle cx="36" cy="36" r="28" fill="none" stroke="#5b4a7a" stroke-width="2"/>
        <path d="M36 36l14-6M36 36l-6 12" stroke="#e2e8f0" stroke-width="2.4" stroke-linecap="round"/>
        <rect x="10" y="76" width="52" height="7" rx="3.5" fill="#94a3b8" fill-opacity="0.5"/>
      </g>
      <g transform="translate(234 0)">
        <circle cx="36" cy="36" r="28" fill="none" stroke="#5b4a7a" stroke-width="2"/>
        <path d="M36 36V18M36 36l10-4" stroke="#e2e8f0" stroke-width="2.4" stroke-linecap="round"/>
        <rect x="10" y="76" width="52" height="7" rx="3.5" fill="#94a3b8" fill-opacity="0.5"/>
      </g>
    </g>
  </g>

  <!-- noticia -->
  <g transform="translate(48 240)">
    <rect width="452" height="146" rx="12" fill="#1a1226" stroke="#3b2b52" stroke-width="1.5"/>
    <path d="M0 12a12 12 0 0 1 12-12h428a12 12 0 0 1 12 12v70H0z" fill="#2b1f40"/>
    <g opacity="0.5">
      <path d="M0 82V56l52-32 46 30 62-42 74 48 58-34 90 56 70-38v46z" fill="#7c5cab"/>
    </g>
    <rect x="20" y="16" width="70" height="9" rx="4.5" fill="#f472b6" fill-opacity="0.8"/>
    <rect x="20" y="94" width="248" height="12" rx="6" fill="#f8fafc" fill-opacity="0.85"/>
    <rect x="20" y="114" width="374" height="7" rx="3.5" fill="#94a3b8" fill-opacity="0.45"/>
    <rect x="20" y="128" width="140" height="7" rx="3.5" fill="#94a3b8" fill-opacity="0.3"/>
  </g>

  <!-- canción -->
  <g transform="translate(524 240)">
    <rect width="228" height="146" rx="12" fill="#1a1226" stroke="#3b2b52" stroke-width="1.5"/>
    <rect x="20" y="16" width="76" height="9" rx="4.5" fill="#f472b6" fill-opacity="0.75"/>
    <rect x="20" y="40" width="62" height="62" rx="8" fill="#3b2b52"/>
    <circle cx="51" cy="71" r="17" fill="#f472b6" fill-opacity="0.55"/>
    <circle cx="51" cy="71" r="5" fill="#1a1226"/>
    <rect x="96" y="46" width="106" height="9" rx="4.5" fill="#f8fafc" fill-opacity="0.75"/>
    <rect x="96" y="64" width="72" height="7" rx="3.5" fill="#94a3b8" fill-opacity="0.45"/>
    <!-- barra de reproducción -->
    <rect x="96" y="88" width="106" height="5" rx="2.5" fill="#3b2b52"/>
    <rect x="96" y="88" width="42" height="5" rx="2.5" fill="#f472b6"/>
    <g transform="translate(20 116)" fill="#94a3b8" fill-opacity="0.6">
      <path d="M6 0l14 8-14 8z"/>
      <rect x="32" y="1" width="4" height="14" rx="2"/><rect x="40" y="1" width="4" height="14" rx="2"/>
    </g>
    <g transform="translate(150 116)" fill="#f472b6" fill-opacity="0.5">
      <rect x="0" y="8" width="4" height="8" rx="2"/><rect x="8" y="2" width="4" height="14" rx="2"/>
      <rect x="16" y="6" width="4" height="10" rx="2"/><rect x="24" y="0" width="4" height="16" rx="2"/>
      <rect x="32" y="9" width="4" height="7" rx="2"/><rect x="40" y="4" width="4" height="12" rx="2"/>
    </g>
  </g>

  <text x="48" y="424" font-family="ui-monospace, Consolas, monospace" font-size="16"
        fill="#f472b6" fill-opacity="0.7" letter-spacing="2.5">FETCH · WEBPACK · API EN VIVO</text>
</svg>
